<svg width="54" height="53" viewBox="0 0 54 53" fill="none" xmlns="http://www.w3.org/2000/svg">
<path fill-rule="evenodd" clip-rule="evenodd" d="M27.069 0.333252C12.3783 0.333252 0.47168 12.2399 0.47168 26.9306C0.47168 38.6799 8.09035 48.6506 18.661 52.1706C19.9917 52.4106 20.4717 51.5919 20.4717 50.8879C20.4717 50.2559 20.4503 48.5812 20.4424 46.3652C13.0423 47.9706 11.4797 42.7972 11.4797 42.7972C10.2743 39.7253 8.52768 38.9066 8.52768 38.9066C6.11435 37.2559 8.71168 37.2932 8.71168 37.2932C11.3837 37.4799 12.7837 40.0346 12.7837 40.0346C15.157 44.0986 19.013 42.9252 20.5223 42.2452C20.765 40.5252 21.4583 39.3519 22.2157 38.6879C16.3117 38.0186 10.1037 35.7359 10.1037 25.5413C10.1037 22.6426 11.141 20.2639 12.8343 18.4079C12.565 17.7332 11.645 15.0266 13.0983 11.3679C13.0983 11.3679 15.3303 10.6506 20.4103 14.0906C22.5799 13.5004 24.8179 13.1991 27.0663 13.1946C29.3148 13.1982 31.5529 13.4995 33.7224 14.0906C38.805 10.6479 41.0344 11.3679 41.0344 11.3679C42.4877 15.0266 41.5757 17.7332 41.2984 18.4079C43.005 20.2639 44.029 22.6399 44.029 25.5413C44.029 35.7626 37.8157 38.0079 31.8903 38.6666C32.837 39.4879 33.6903 41.1093 33.6903 43.5893C33.6903 47.1466 33.6583 50.0159 33.6583 50.8879C33.6583 51.5999 34.133 52.4266 35.4903 52.1652C46.0557 48.6399 53.6664 38.6772 53.6664 26.9306C53.6664 12.2399 41.7597 0.333252 27.069 0.333252Z" fill="#CCCCCC"/>
</svg>
