<svg width="50" height="50" viewBox="0 0 50 50" fill="none" xmlns="http://www.w3.org/2000/svg">
<path d="M48.8587 15.1466C48.8318 13.1269 48.4538 11.1273 47.7414 9.23722C47.1237 7.64296 46.1802 6.19508 44.9712 4.9861C43.7622 3.77712 42.3143 2.83362 40.7201 2.21589C38.8543 1.5155 36.8832 1.1368 34.8907 1.09589C32.3254 0.981219 31.5121 0.949219 25.0001 0.949219C18.4881 0.949219 17.6534 0.949219 15.1067 1.09589C13.1152 1.1371 11.145 1.5158 9.28007 2.21589C7.68555 2.83319 6.23746 3.77654 5.02842 4.98557C3.81938 6.19461 2.87604 7.64271 2.25873 9.23722C1.55695 11.1016 1.17906 13.0722 1.1414 15.0639C1.02673 17.6319 0.992065 18.4452 0.992065 24.9572C0.992065 31.4692 0.992065 32.3012 1.1414 34.8506C1.1814 36.8452 1.5574 38.8132 2.25873 40.6826C2.87707 42.2766 3.82112 43.7241 5.03056 44.9326C6.24 46.1411 7.68824 47.0841 9.28273 47.7012C11.1426 48.4298 13.1131 48.8356 15.1094 48.9012C17.6774 49.0159 18.4907 49.0506 25.0027 49.0506C31.5147 49.0506 32.3494 49.0506 34.8961 48.9012C36.8885 48.862 38.8597 48.4842 40.7254 47.7839C42.3192 47.1654 43.7668 46.2217 44.9756 45.0128C46.1845 43.8039 47.1283 42.3564 47.7467 40.7626C48.4481 38.8959 48.8241 36.9279 48.8641 34.9306C48.9787 32.3652 49.0134 31.5519 49.0134 25.0372C49.0081 18.5252 49.0081 17.6986 48.8587 15.1466ZM24.9841 37.2719C18.1734 37.2719 12.6561 31.7546 12.6561 24.9439C12.6561 18.1332 18.1734 12.6159 24.9841 12.6159C28.2537 12.6159 31.3893 13.9147 33.7013 16.2267C36.0132 18.5386 37.3121 21.6743 37.3121 24.9439C37.3121 28.2135 36.0132 31.3492 33.7013 33.6611C31.3893 35.9731 28.2537 37.2719 24.9841 37.2719ZM37.8027 15.0346C37.4251 15.0349 37.0512 14.9608 36.7022 14.8164C36.3533 14.6721 36.0363 14.4604 35.7693 14.1934C35.5023 13.9264 35.2905 13.6093 35.1462 13.2604C35.0018 12.9115 34.9277 12.5375 34.9281 12.1599C34.9281 11.7826 35.0024 11.4089 35.1468 11.0603C35.2912 10.7117 35.5028 10.3949 35.7697 10.1281C36.0365 9.86132 36.3532 9.64967 36.7018 9.50527C37.0504 9.36087 37.4241 9.28655 37.8014 9.28655C38.1787 9.28655 38.5524 9.36087 38.901 9.50527C39.2496 9.64967 39.5663 9.86132 39.8332 10.1281C40.1 10.3949 40.3116 10.7117 40.456 11.0603C40.6004 11.4089 40.6747 11.7826 40.6747 12.1599C40.6747 13.7492 39.3894 15.0346 37.8027 15.0346Z" fill="#CCCCCC"/>
<path d="M24.9843 32.9519C29.407 32.9519 32.9923 29.3666 32.9923 24.9439C32.9923 20.5212 29.407 16.9359 24.9843 16.9359C20.5616 16.9359 16.9763 20.5212 16.9763 24.9439C16.9763 29.3666 20.5616 32.9519 24.9843 32.9519Z" fill="#CCCCCC"/>
</svg>
