<svg width="54" height="54" viewBox="0 0 54 54" fill="none" xmlns="http://www.w3.org/2000/svg">
<path d="M19.1066 52.44C21.6666 53.2134 24.2533 53.6667 27 53.6667C34.0724 53.6667 40.8552 50.8572 45.8562 45.8562C50.8571 40.8553 53.6667 34.0725 53.6667 27C53.6667 23.4981 52.9769 20.0305 51.6368 16.7951C50.2966 13.5598 48.3324 10.6201 45.8562 8.14386C43.3799 5.66763 40.4402 3.70338 37.2049 2.36325C33.9695 1.02313 30.5019 0.333374 27 0.333374C23.4981 0.333374 20.0304 1.02313 16.7951 2.36325C13.5597 3.70338 10.62 5.66763 8.1438 8.14386C3.14283 13.1448 0.333313 19.9276 0.333313 27C0.333313 38.3334 7.45331 48.0667 17.5066 51.9067C17.2666 49.8267 17.0266 46.3867 17.5066 44.0134L20.5733 30.84C20.5733 30.84 19.8 29.2934 19.8 26.84C19.8 23.16 22.0933 20.4134 24.7066 20.4134C27 20.4134 28.0666 22.0934 28.0666 24.2534C28.0666 26.5467 26.5466 29.8267 25.7733 32.9734C25.32 35.5867 27.16 37.88 29.8267 37.88C34.5733 37.88 38.2533 32.8134 38.2533 25.6667C38.2533 19.2667 33.6666 14.8934 27.08 14.8934C19.56 14.8934 15.1333 20.4934 15.1333 26.3867C15.1333 28.68 15.88 31 17.1066 32.52C17.3466 32.68 17.3466 32.8934 17.2666 33.2934L16.4933 36.2C16.4933 36.6534 16.2 36.8134 15.7466 36.4934C12.3333 35 10.36 30.1467 10.36 26.2267C10.36 17.8 16.3333 10.1467 27.8533 10.1467C37.0266 10.1467 44.1733 16.7334 44.1733 25.48C44.1733 34.6534 38.4933 42.0134 30.36 42.0134C27.7733 42.0134 25.24 40.6267 24.3333 39L22.5466 45.32C21.9333 47.6134 20.2533 50.68 19.1066 52.52V52.44Z" fill="#CCCCCC"/>
</svg>
