<svg width="43" height="43" viewBox="0 0 43 43" fill="none" xmlns="http://www.w3.org/2000/svg">
<path d="M6.47996 42.3335C9.69057 42.3335 12.2933 39.7307 12.2933 36.5201C12.2933 33.3095 9.69057 30.7068 6.47996 30.7068C3.26934 30.7068 0.666626 33.3095 0.666626 36.5201C0.666626 39.7307 3.26934 42.3335 6.47996 42.3335Z" fill="#CCCCCC"/>
<path d="M0.666626 0.839966V8.38663C19.4133 8.38663 34.6133 23.5866 34.6133 42.3333H42.16C42.16 19.4266 23.5733 0.839966 0.666626 0.839966ZM0.666626 15.9333V23.48C11.0666 23.48 19.52 31.9333 19.52 42.3333H27.0666C27.0666 27.7466 15.2533 15.9333 0.666626 15.9333Z" fill="#CCCCCC"/>
</svg>
