<svg width="18" height="18" viewBox="0 0 18 18" fill="none" xmlns="http://www.w3.org/2000/svg">
<path d="M2.69492 17.6667C3.99923 17.6667 5.05658 16.6093 5.05658 15.305C5.05658 14.0007 3.99923 12.9434 2.69492 12.9434C1.39061 12.9434 0.333252 14.0007 0.333252 15.305C0.333252 16.6093 1.39061 17.6667 2.69492 17.6667Z" fill="#CCCCCC"/>
<path d="M0.333252 0.810059V3.87589C7.94908 3.87589 14.1241 10.0509 14.1241 17.6667H17.1899C17.1899 8.36089 9.63908 0.810059 0.333252 0.810059V0.810059ZM0.333252 6.94173V10.0076C4.55825 10.0076 7.99242 13.4417 7.99242 17.6667H11.0583C11.0583 11.7409 6.25908 6.94173 0.333252 6.94173V6.94173Z" fill="#CCCCCC"/>
</svg>
