<svg width="53" height="44" viewBox="0 0 53 44" fill="none" xmlns="http://www.w3.org/2000/svg">
<path d="M47.3546 11.3254C47.3893 11.7921 47.3893 12.2561 47.3893 12.7201C47.3893 26.9201 36.5813 43.2827 16.8293 43.2827C10.744 43.2827 5.09065 41.5201 0.333313 38.4587C1.19731 38.5574 2.02931 38.5921 2.92798 38.5921C7.76263 38.6038 12.4604 36.9871 16.264 34.0027C14.0224 33.9622 11.8495 33.2226 10.0486 31.8874C8.24771 30.5521 6.90874 28.6878 6.21865 26.5547C6.88265 26.6534 7.54931 26.7201 8.24798 26.7201C9.21065 26.7201 10.1786 26.5867 11.0773 26.3547C8.64467 25.8636 6.45724 24.545 4.88696 22.6232C3.31668 20.7015 2.46049 18.2951 2.46398 15.8134V15.6801C3.89598 16.4774 5.55731 16.9761 7.31731 17.0427C5.84288 16.063 4.6339 14.7335 3.79822 13.1729C2.96254 11.6122 2.52615 9.86902 2.52798 8.09874C2.52798 6.10408 3.05865 4.27474 3.98931 2.68008C6.68835 6.00013 10.0547 8.71624 13.8702 10.6525C17.6858 12.5888 21.8655 13.702 26.1386 13.9201C25.9733 13.1201 25.872 12.2907 25.872 11.4587C25.8713 10.048 26.1486 8.6509 26.6882 7.34738C27.2277 6.04387 28.0189 4.85947 29.0165 3.86191C30.014 2.86434 31.1984 2.07317 32.5019 1.53362C33.8055 0.994062 35.2025 0.716708 36.6133 0.717409C39.7066 0.717409 42.4986 2.01341 44.4613 4.10941C46.866 3.64439 49.1721 2.76653 51.2773 1.51474C50.4757 3.99692 48.7967 6.10169 46.5546 7.43474C48.6874 7.19149 50.7718 6.63062 52.7386 5.77074C51.2697 7.91234 49.4494 9.79033 47.3546 11.3254Z" fill="#CCCCCC"/>
</svg>
