<svg width="22" height="22" viewBox="0 0 22 22" fill="none" xmlns="http://www.w3.org/2000/svg">
<path fill-rule="evenodd" clip-rule="evenodd" d="M11.0281 0.166748C5.05998 0.166748 0.2229 5.00383 0.2229 10.9719C0.2229 15.7451 3.31798 19.7957 7.61232 21.2257C8.1529 21.3232 8.3479 20.9906 8.3479 20.7046C8.3479 20.4478 8.33924 19.7675 8.33599 18.8672C5.32973 19.5194 4.6949 17.4177 4.6949 17.4177C4.20523 16.1697 3.49565 15.8372 3.49565 15.8372C2.51523 15.1666 3.5704 15.1817 3.5704 15.1817C4.6559 15.2576 5.22465 16.2954 5.22465 16.2954C6.18882 17.9464 7.75532 17.4697 8.36848 17.1935C8.46707 16.4947 8.74874 16.0181 9.0564 15.7483C6.6579 15.4764 4.1359 14.5491 4.1359 10.4075C4.1359 9.22991 4.55732 8.26358 5.24523 7.50958C5.13582 7.2355 4.76207 6.13591 5.35248 4.64958C5.35248 4.64958 6.25923 4.35816 8.32299 5.75566C9.20438 5.51589 10.1136 5.3935 11.027 5.39166C11.9404 5.39315 12.8497 5.51554 13.731 5.75566C15.7958 4.35708 16.7015 4.64958 16.7015 4.64958C17.2919 6.13591 16.9214 7.2355 16.8087 7.50958C17.5021 8.26358 17.9181 9.22883 17.9181 10.4075C17.9181 14.5599 15.3939 15.4721 12.9867 15.7397C13.3713 16.0733 13.718 16.732 13.718 17.7395C13.718 19.1847 13.705 20.3503 13.705 20.7046C13.705 20.9938 13.8978 21.3297 14.4492 21.2235C18.7414 19.7913 21.8332 15.744 21.8332 10.9719C21.8332 5.00383 16.9962 0.166748 11.0281 0.166748Z" fill="#CCCCCC"/>
</svg>
