<svg width="24" height="22" viewBox="0 0 24 22" fill="none" xmlns="http://www.w3.org/2000/svg">
<path d="M8.54671 21.3351C9.66671 21.6492 10.7984 21.8334 12 21.8334C15.0942 21.8334 18.0617 20.692 20.2496 18.6604C22.4375 16.6288 23.6667 13.8733 23.6667 11.0001C23.6667 9.57743 23.3649 8.1687 22.7786 6.85434C22.1923 5.53998 21.333 4.34573 20.2496 3.33976C19.1663 2.33379 17.8801 1.53581 16.4647 0.991387C15.0492 0.446961 13.5321 0.166748 12 0.166748C10.468 0.166748 8.95087 0.446961 7.5354 0.991387C6.11994 1.53581 4.83381 2.33379 3.75046 3.33976C1.56254 5.3714 0.333374 8.1269 0.333374 11.0001C0.333374 15.6042 3.44837 19.5584 7.84671 21.1184C7.74171 20.2734 7.63671 18.8759 7.84671 17.9117L9.18837 12.5601C9.18837 12.5601 8.85004 11.9317 8.85004 10.9351C8.85004 9.44008 9.85338 8.32425 10.9967 8.32425C12 8.32425 12.4667 9.00675 12.4667 9.88425C12.4667 10.8159 11.8017 12.1484 11.4634 13.4267C11.265 14.4884 12.07 15.4201 13.2367 15.4201C15.3134 15.4201 16.9234 13.3617 16.9234 10.4584C16.9234 7.85841 14.9167 6.08175 12.035 6.08175C8.74504 6.08175 6.80837 8.35675 6.80837 10.7509C6.80837 11.6826 7.13504 12.6251 7.67171 13.2426C7.77671 13.3076 7.77671 13.3942 7.74171 13.5567L7.40337 14.7376C7.40337 14.9217 7.27504 14.9867 7.07671 14.8567C5.58337 14.2501 4.72004 12.2784 4.72004 10.6859C4.72004 7.26258 7.33337 4.15341 12.3734 4.15341C16.3867 4.15341 19.5134 6.82925 19.5134 10.3826C19.5134 14.1092 17.0284 17.0992 13.47 17.0992C12.3384 17.0992 11.23 16.5359 10.8334 15.8751L10.0517 18.4426C9.78337 19.3742 9.04837 20.6201 8.54671 21.3676V21.3351V21.3351Z" fill="#CCCCCC"/>
</svg>
