<svg width="18" height="18" viewBox="0 0 18 18" fill="none" xmlns="http://www.w3.org/2000/svg">
<path d="M2.69504 17.6667C3.99935 17.6667 5.05671 16.6093 5.05671 15.305C5.05671 14.0007 3.99935 12.9434 2.69504 12.9434C1.39073 12.9434 0.333374 14.0007 0.333374 15.305C0.333374 16.6093 1.39073 17.6667 2.69504 17.6667Z" fill="#CCCCCC"/>
<path d="M0.333374 0.810059V3.87589C7.94921 3.87589 14.1242 10.0509 14.1242 17.6667H17.19C17.19 8.36089 9.63921 0.810059 0.333374 0.810059V0.810059ZM0.333374 6.94173V10.0076C4.55837 10.0076 7.99254 13.4417 7.99254 17.6667H11.0584C11.0584 11.7409 6.25921 6.94173 0.333374 6.94173V6.94173Z" fill="#CCCCCC"/>
</svg>
