<svg width="30" height="30" viewBox="0 0 30 30" fill="none" xmlns="http://www.w3.org/2000/svg">
<path d="M4.5875 29.5001C6.84496 29.5001 8.675 27.67 8.675 25.4126C8.675 23.1551 6.84496 21.3251 4.5875 21.3251C2.33004 21.3251 0.5 23.1551 0.5 25.4126C0.5 27.67 2.33004 29.5001 4.5875 29.5001Z" fill="#CCCCCC"/>
<path d="M0.5 0.324951V5.6312C13.6813 5.6312 24.3687 16.3187 24.3687 29.5H29.675C29.675 13.3937 16.6063 0.324951 0.5 0.324951ZM0.5 10.9375V16.2437C7.8125 16.2437 13.7562 22.1875 13.7562 29.5H19.0625C19.0625 19.2437 10.7562 10.9375 0.5 10.9375Z" fill="#CCCCCC"/>
</svg>
