<svg width="22" height="18" viewBox="0 0 22 18" fill="none" xmlns="http://www.w3.org/2000/svg">
<path d="M19.269 4.66326C19.2831 4.85284 19.2831 5.04134 19.2831 5.22984C19.2831 10.9986 14.8924 17.6459 6.86813 17.6459C4.39596 17.6459 2.09929 16.9298 0.166626 15.6862C0.517626 15.7263 0.855626 15.7403 1.22071 15.7403C3.18478 15.7451 5.09324 15.0883 6.63846 13.8759C5.72783 13.8594 4.84508 13.559 4.11347 13.0166C3.38185 12.4741 2.83789 11.7167 2.55754 10.8502C2.82729 10.8903 3.09813 10.9173 3.38196 10.9173C3.77304 10.9173 4.16629 10.8632 4.53138 10.7689C3.54312 10.5694 2.65447 10.0337 2.01655 9.253C1.37862 8.47228 1.03079 7.49471 1.03221 6.48651V6.43234C1.61396 6.75626 2.28888 6.95884 3.00388 6.98593C2.40489 6.58789 1.91374 6.04778 1.57424 5.41378C1.23475 4.77978 1.05747 4.0716 1.05821 3.35243C1.05821 2.54209 1.27379 1.79893 1.65188 1.15109C2.74836 2.49987 4.11592 3.60329 5.66599 4.38989C7.21606 5.17649 8.91407 5.62874 10.65 5.71734C10.5829 5.39234 10.5417 5.05543 10.5417 4.71743C10.5414 4.1443 10.6541 3.57674 10.8733 3.04719C11.0925 2.51763 11.4139 2.03647 11.8192 1.63121C12.2244 1.22595 12.7056 0.904539 13.2351 0.685345C13.7647 0.466151 14.3322 0.353476 14.9054 0.35376C16.162 0.35376 17.2963 0.88026 18.0936 1.73176C19.0705 1.54285 20.0074 1.18622 20.8626 0.677677C20.537 1.68606 19.8549 2.54112 18.944 3.08268C19.8105 2.98385 20.6573 2.756 21.4563 2.40668C20.8595 3.2767 20.12 4.03963 19.269 4.66326V4.66326Z" fill="#CCCCCC"/>
</svg>
