<svg width="26" height="26" viewBox="0 0 26 26" fill="none" xmlns="http://www.w3.org/2000/svg">
<path fill-rule="evenodd" clip-rule="evenodd" d="M1.49351 1.49363C1.84514 1.142 2.32206 0.944458 2.81934 0.944458C3.31662 0.944458 3.79353 1.142 4.14516 1.49363L14.7518 12.1002C15.1034 12.4519 15.3009 12.9288 15.3009 13.4261C15.3009 13.9233 15.1034 14.4003 14.7518 14.7519L4.14516 25.3585C3.79353 25.7101 3.31662 25.9077 2.81934 25.9077C2.32206 25.9077 1.84514 25.7101 1.49351 25.3585C1.14188 25.0069 0.944336 24.5299 0.944336 24.0327C0.944336 23.5354 1.14188 23.0585 1.49351 22.7068L10.7743 13.4261L1.49351 4.14528C1.14188 3.79365 0.944336 3.31674 0.944336 2.81946C0.944336 2.32218 1.14188 1.84526 1.49351 1.49363Z" fill="url(#paint0_linear_116_391)"/>
<path fill-rule="evenodd" clip-rule="evenodd" d="M12.1004 14.7519C11.7488 14.4003 11.5513 13.9233 11.5513 13.4261C11.5513 12.9288 11.7488 12.4519 12.1004 12.1002L22.707 1.49363C23.0587 1.142 23.5356 0.944459 24.0329 0.944459C24.5301 0.944459 25.007 1.142 25.3587 1.49363C25.7103 1.84526 25.9079 2.32218 25.9079 2.81946C25.9079 3.31674 25.7103 3.79365 25.3587 4.14528L16.0779 13.4261L25.3587 22.7068C25.7103 23.0585 25.9079 23.5354 25.9079 24.0327C25.9079 24.5299 25.7103 25.0069 25.3587 25.3585C25.007 25.7101 24.5301 25.9077 24.0329 25.9077C23.5356 25.9077 23.0587 25.7101 22.707 25.3585L12.1004 14.7519Z" fill="url(#paint1_linear_116_391)"/>
<defs>
<linearGradient id="paint0_linear_116_391" x1="-4.45318" y1="-14.6575" x2="32.3967" y2="-6.49943" gradientUnits="userSpaceOnUse">
<stop stop-color="#976464"/>
<stop offset="1" stop-color="#CFA5A5"/>
</linearGradient>
<linearGradient id="paint1_linear_116_391" x1="-4.45318" y1="-14.6575" x2="32.3967" y2="-6.49943" gradientUnits="userSpaceOnUse">
<stop stop-color="#976464"/>
<stop offset="1" stop-color="#CFA5A5"/>
</linearGradient>
</defs>
</svg>
