<svg width="102" height="42" viewBox="0 0 102 42" fill="none" xmlns="http://www.w3.org/2000/svg">
<path d="M12.3735 0.0527344H18.8331L30.8757 41.2223H24.3238L21.2785 30.9589H9.83577L6.83666 41.2223H0.28476L12.3735 0.0527344ZM20.125 25.3343L15.6033 8.34464L10.897 25.3343H20.125Z" fill="white"/>
<path d="M37.8832 0.0527344L46.0039 15.2449L54.0784 0.0527344H60.9994L49.6489 20.9275L60.6303 41.2223H53.7093L46.0039 26.61L38.2523 41.2223H31.2852L42.2665 20.9275L30.916 0.0527344H37.8832Z" fill="white"/>
<path d="M63.9756 41.2223V0.0527344H70.3088V41.2223H63.9756Z" fill="#EC7979"/>
<path d="M101.476 7.06896H91.0583V41.2223H84.771V7.06896H74.3534V0.0527344H101.476V7.06896Z" fill="#EC7979"/>
</svg>
